# xmcd
#
# Track frame offsets: 
#        225
#        27731
#        48651
#        73935
#        78408
#        116149
#        157810
#        201287
#        233160
#        253662
#        289432
#        318040
#
# Disc length: 4580 seconds
#
# Revision: 3
# Processed by: cddbd v1.5.2PL0 Copyright (c) Steve Scherf et al.
# Submitted via: ExactAudioCopy v1.0b3
#
DISCID=b211e10c
DTITLE=Jan Spálený - Edison - Signál času
DYEAR=1978
DGENRE=Blues
TTITLE0=Zpěv I.
TTITLE1=Zpěv II.
TTITLE2=Zpěv III.
TTITLE3=Mezihra
TTITLE4=Zpěv IV.
TTITLE5=Zpěv V.
TTITLE6=Naše životy jsou tvrdé krajíce...
TTITLE7=Ponenáhlu vidím ztráceti se dav...
TTITLE8=Variace na závěr
TTITLE9=Elektřina tiše praská v ovzduší...
TTITLE10=Konec denních zpráv...
TTITLE11=Odpusťte mi
EXTD=YEAR: 1997 ID3G:   0
EXTT0=
EXTT1=
EXTT2=
EXTT3=
EXTT4=
EXTT5=
EXTT6=
EXTT7=
EXTT8=
EXTT9=
EXTT10=
EXTT11=
PLAYORDER=
